<mxfile host="app.diagrams.net" modified="2022-08-26T16:03:01.650Z" agent="5.0 (Windows NT 10.0; Win64; x64) AppleWebKit/537.36 (KHTML, like Gecko) Chrome/104.0.0.0 Safari/537.36" etag="vxGiRzoqIfxyQVkfuW54" version="20.2.6" type="github">
  <diagram id="NZcnZFmh6wLftyMG3GAL" name="Page-1">
    <mxGraphModel dx="920" dy="504" grid="1" gridSize="10" guides="1" tooltips="1" connect="1" arrows="1" fold="1" page="1" pageScale="1" pageWidth="827" pageHeight="1169" math="0" shadow="0">
      <root>
        <mxCell id="0" />
        <mxCell id="1" parent="0" />
        <mxCell id="Z7-1jIpQj_UgxVCSQVgs-1" style="edgeStyle=orthogonalEdgeStyle;rounded=0;orthogonalLoop=1;jettySize=auto;html=1;exitX=0.5;exitY=1;exitDx=0;exitDy=0;entryX=0.5;entryY=0;entryDx=0;entryDy=0;" edge="1" parent="1" source="Z7-1jIpQj_UgxVCSQVgs-2" target="Z7-1jIpQj_UgxVCSQVgs-5">
          <mxGeometry relative="1" as="geometry" />
        </mxCell>
        <mxCell id="Z7-1jIpQj_UgxVCSQVgs-2" value="Mulai" style="ellipse;whiteSpace=wrap;html=1;fontSize=18;fontFamily=Times New Roman;" vertex="1" parent="1">
          <mxGeometry x="310" y="30" width="180" height="50" as="geometry" />
        </mxCell>
        <mxCell id="Z7-1jIpQj_UgxVCSQVgs-4" style="edgeStyle=orthogonalEdgeStyle;rounded=0;orthogonalLoop=1;jettySize=auto;html=1;exitX=0.5;exitY=1;exitDx=0;exitDy=0;entryX=0.5;entryY=0;entryDx=0;entryDy=0;" edge="1" parent="1" source="Z7-1jIpQj_UgxVCSQVgs-5" target="Z7-1jIpQj_UgxVCSQVgs-7">
          <mxGeometry relative="1" as="geometry" />
        </mxCell>
        <mxCell id="Z7-1jIpQj_UgxVCSQVgs-5" value="Pengumpulan Data" style="shape=parallelogram;perimeter=parallelogramPerimeter;whiteSpace=wrap;html=1;fixedSize=1;fontSize=18;fontFamily=Times New Roman;" vertex="1" parent="1">
          <mxGeometry x="240" y="110" width="320" height="40" as="geometry" />
        </mxCell>
        <mxCell id="Z7-1jIpQj_UgxVCSQVgs-55" style="edgeStyle=orthogonalEdgeStyle;rounded=0;orthogonalLoop=1;jettySize=auto;html=1;exitX=0.5;exitY=1;exitDx=0;exitDy=0;" edge="1" parent="1" source="Z7-1jIpQj_UgxVCSQVgs-7" target="Z7-1jIpQj_UgxVCSQVgs-9">
          <mxGeometry relative="1" as="geometry" />
        </mxCell>
        <mxCell id="Z7-1jIpQj_UgxVCSQVgs-7" value="Pengelolaan Data Awal" style="shape=parallelogram;perimeter=parallelogramPerimeter;whiteSpace=wrap;html=1;fixedSize=1;fontSize=18;fontFamily=Times New Roman;" vertex="1" parent="1">
          <mxGeometry x="240" y="175" width="320" height="40" as="geometry" />
        </mxCell>
        <mxCell id="Z7-1jIpQj_UgxVCSQVgs-56" style="edgeStyle=orthogonalEdgeStyle;rounded=0;orthogonalLoop=1;jettySize=auto;html=1;exitX=0.5;exitY=1;exitDx=0;exitDy=0;entryX=0.5;entryY=0;entryDx=0;entryDy=0;" edge="1" parent="1" source="Z7-1jIpQj_UgxVCSQVgs-9" target="Z7-1jIpQj_UgxVCSQVgs-18">
          <mxGeometry relative="1" as="geometry" />
        </mxCell>
        <mxCell id="Z7-1jIpQj_UgxVCSQVgs-9" value="Model Klasifikasi dengan Algoritma CNN" style="rounded=0;whiteSpace=wrap;html=1;fontSize=18;fontFamily=Times New Roman;" vertex="1" parent="1">
          <mxGeometry x="240" y="240" width="320" height="50" as="geometry" />
        </mxCell>
        <mxCell id="Z7-1jIpQj_UgxVCSQVgs-51" style="edgeStyle=orthogonalEdgeStyle;rounded=0;orthogonalLoop=1;jettySize=auto;html=1;exitX=0.5;exitY=1;exitDx=0;exitDy=0;entryX=0.5;entryY=0;entryDx=0;entryDy=0;" edge="1" parent="1" source="Z7-1jIpQj_UgxVCSQVgs-13" target="Z7-1jIpQj_UgxVCSQVgs-49">
          <mxGeometry relative="1" as="geometry" />
        </mxCell>
        <mxCell id="Z7-1jIpQj_UgxVCSQVgs-13" value="Implementasi dengan TensorFlow.js di Web" style="rounded=0;whiteSpace=wrap;html=1;fontSize=18;fontFamily=Times New Roman;" vertex="1" parent="1">
          <mxGeometry x="240" y="420" width="320" height="50" as="geometry" />
        </mxCell>
        <mxCell id="Z7-1jIpQj_UgxVCSQVgs-16" value="Tidak" style="edgeStyle=orthogonalEdgeStyle;rounded=0;orthogonalLoop=1;jettySize=auto;html=1;exitX=1;exitY=0.5;exitDx=0;exitDy=0;entryX=1;entryY=0.5;entryDx=0;entryDy=0;fontSize=16;fontFamily=Times New Roman;" edge="1" parent="1" source="Z7-1jIpQj_UgxVCSQVgs-18" target="Z7-1jIpQj_UgxVCSQVgs-9">
          <mxGeometry relative="1" as="geometry">
            <Array as="points">
              <mxPoint x="590" y="350" />
              <mxPoint x="590" y="265" />
            </Array>
          </mxGeometry>
        </mxCell>
        <mxCell id="Z7-1jIpQj_UgxVCSQVgs-17" value="Ya" style="edgeStyle=orthogonalEdgeStyle;rounded=0;orthogonalLoop=1;jettySize=auto;html=1;exitX=0.5;exitY=1;exitDx=0;exitDy=0;entryX=0.5;entryY=0;entryDx=0;entryDy=0;fontSize=16;fontFamily=Times New Roman;" edge="1" parent="1" source="Z7-1jIpQj_UgxVCSQVgs-18" target="Z7-1jIpQj_UgxVCSQVgs-13">
          <mxGeometry relative="1" as="geometry" />
        </mxCell>
        <mxCell id="Z7-1jIpQj_UgxVCSQVgs-18" value="Model Sudah Akurat?" style="rhombus;whiteSpace=wrap;html=1;fontSize=18;fontFamily=Times New Roman;" vertex="1" parent="1">
          <mxGeometry x="240" y="320" width="320" height="60" as="geometry" />
        </mxCell>
        <mxCell id="Z7-1jIpQj_UgxVCSQVgs-30" value="Selesai" style="ellipse;whiteSpace=wrap;html=1;fontSize=18;fontFamily=Times New Roman;" vertex="1" parent="1">
          <mxGeometry x="310" y="740" width="180" height="50" as="geometry" />
        </mxCell>
        <mxCell id="Z7-1jIpQj_UgxVCSQVgs-46" style="edgeStyle=orthogonalEdgeStyle;rounded=0;orthogonalLoop=1;jettySize=auto;html=1;exitX=0.5;exitY=1;exitDx=0;exitDy=0;entryX=0.5;entryY=0;entryDx=0;entryDy=0;" edge="1" parent="1" source="Z7-1jIpQj_UgxVCSQVgs-32">
          <mxGeometry relative="1" as="geometry">
            <mxPoint x="579" y="185" as="targetPoint" />
          </mxGeometry>
        </mxCell>
        <mxCell id="Z7-1jIpQj_UgxVCSQVgs-33" style="edgeStyle=orthogonalEdgeStyle;rounded=0;orthogonalLoop=1;jettySize=auto;html=1;exitX=0.5;exitY=1;exitDx=0;exitDy=0;entryX=0.5;entryY=0;entryDx=0;entryDy=0;" edge="1" parent="1" source="Z7-1jIpQj_UgxVCSQVgs-34">
          <mxGeometry relative="1" as="geometry">
            <mxPoint x="580" y="255" as="targetPoint" />
          </mxGeometry>
        </mxCell>
        <mxCell id="Z7-1jIpQj_UgxVCSQVgs-44" style="edgeStyle=orthogonalEdgeStyle;rounded=0;orthogonalLoop=1;jettySize=auto;html=1;exitX=0.5;exitY=1;exitDx=0;exitDy=0;entryX=0.5;entryY=0;entryDx=0;entryDy=0;" edge="1" parent="1" source="Z7-1jIpQj_UgxVCSQVgs-36" target="Z7-1jIpQj_UgxVCSQVgs-30">
          <mxGeometry relative="1" as="geometry" />
        </mxCell>
        <mxCell id="Z7-1jIpQj_UgxVCSQVgs-36" value="Deployment" style="shape=parallelogram;perimeter=parallelogramPerimeter;whiteSpace=wrap;html=1;fixedSize=1;fontSize=18;fontFamily=Times New Roman;" vertex="1" parent="1">
          <mxGeometry x="240" y="670" width="320" height="40" as="geometry" />
        </mxCell>
        <mxCell id="Z7-1jIpQj_UgxVCSQVgs-39" value="Ya" style="edgeStyle=orthogonalEdgeStyle;rounded=0;orthogonalLoop=1;jettySize=auto;html=1;exitX=0.5;exitY=1;exitDx=0;exitDy=0;fontSize=16;fontFamily=Times New Roman;" edge="1" parent="1" source="Z7-1jIpQj_UgxVCSQVgs-41" target="Z7-1jIpQj_UgxVCSQVgs-36">
          <mxGeometry relative="1" as="geometry" />
        </mxCell>
        <mxCell id="Z7-1jIpQj_UgxVCSQVgs-40" value="Tidak" style="edgeStyle=orthogonalEdgeStyle;rounded=0;orthogonalLoop=1;jettySize=auto;html=1;exitX=1;exitY=0.5;exitDx=0;exitDy=0;fontSize=16;fontFamily=Times New Roman;entryX=1;entryY=0.5;entryDx=0;entryDy=0;" edge="1" parent="1" source="Z7-1jIpQj_UgxVCSQVgs-41" target="Z7-1jIpQj_UgxVCSQVgs-13">
          <mxGeometry relative="1" as="geometry">
            <mxPoint x="531" y="450" as="targetPoint" />
            <Array as="points">
              <mxPoint x="590" y="600" />
              <mxPoint x="590" y="445" />
            </Array>
          </mxGeometry>
        </mxCell>
        <mxCell id="Z7-1jIpQj_UgxVCSQVgs-41" value="Hasilnya Sudah Sesuai?" style="rhombus;whiteSpace=wrap;html=1;fontSize=18;fontFamily=Times New Roman;" vertex="1" parent="1">
          <mxGeometry x="240" y="570" width="320" height="60" as="geometry" />
        </mxCell>
        <mxCell id="Z7-1jIpQj_UgxVCSQVgs-52" style="edgeStyle=orthogonalEdgeStyle;rounded=0;orthogonalLoop=1;jettySize=auto;html=1;exitX=0.5;exitY=1;exitDx=0;exitDy=0;entryX=0.5;entryY=0;entryDx=0;entryDy=0;" edge="1" parent="1" source="Z7-1jIpQj_UgxVCSQVgs-49" target="Z7-1jIpQj_UgxVCSQVgs-41">
          <mxGeometry relative="1" as="geometry" />
        </mxCell>
        <mxCell id="Z7-1jIpQj_UgxVCSQVgs-49" value="Pengujian pada Gambar" style="rounded=0;whiteSpace=wrap;html=1;fontSize=18;fontFamily=Times New Roman;" vertex="1" parent="1">
          <mxGeometry x="240" y="500" width="320" height="40" as="geometry" />
        </mxCell>
      </root>
    </mxGraphModel>
  </diagram>
</mxfile>
